<svg width="201" height="80" viewBox="0 0 201 80" fill="none" xmlns="http://www.w3.org/2000/svg">
<path d="M199.559 28.69C197.879 28.57 192.719 28.61 192.719 28.61L175 8.31L150.559 0C143.006 0.332306 135.944 2.80806 129.746 7.1378C123.548 11.4675 118.71 17.4723 115.799 24.45C103.539 18.26 97.3294 18.08 84.6994 24.45C81.7884 17.4723 76.9512 11.4675 70.7532 7.1378C64.5552 2.80806 57.2526 0.332306 49.6994 0H49.9394L42.6012 0.55728C41.828 0.615997 41.0611 0.738847 40.3083 0.924561L34.4894 2.36L21.4395 11.1455L7.77941 28.61C7.77941 28.61 2.61941 28.61 0.939408 28.69C-0.110592 28.76 -0.500592 32.26 0.939408 33.06C1.19941 33.2 7.93941 33.24 7.93941 33.24L8.22941 40.03C8.28008 45.7224 9.55098 51.3377 11.9564 56.4972C14.3618 61.6567 17.8457 66.2403 22.1732 69.9388C26.5007 73.6373 31.571 76.3647 37.0422 77.937C42.5134 79.5093 48.2581 79.89 53.8889 79.0533C59.5198 78.2166 64.9056 76.1821 69.6833 73.0869C74.4609 69.9917 78.5192 65.9079 81.5843 61.1109C84.6494 56.3139 86.6501 50.9154 87.4515 45.2794C88.2528 39.6435 87.836 33.9012 86.2294 28.44C88.5494 27.16 96.5194 23.62 100.369 23.6C101.483 23.6218 102.588 23.7865 103.659 24.09C107.401 25.2077 111.032 26.6637 114.509 28.44C112.886 33.904 112.454 39.653 113.245 45.298C114.035 50.9431 116.029 56.3525 119.092 61.1602C122.154 65.9679 126.213 70.0617 130.995 73.1647C135.776 76.2676 141.169 78.3072 146.807 79.1455C152.445 79.9838 158.198 79.6013 163.675 78.0237C169.153 76.4462 174.227 73.7104 178.556 70.0017C182.884 66.2929 186.366 61.6976 188.765 56.5267C191.163 51.3558 192.423 45.73 192.459 40.03L192.749 33.24C192.749 33.24 199.469 33.24 199.749 33.06C200.999 32.26 200.609 28.76 199.559 28.69ZM71.5094 11.5L23.2094 12.75C29.7927 7.27746 39.5136 3.03142 48.0744 3.03142C56.6353 3.03142 64.9261 6.02746 71.5094 11.5ZM34.4894 2.36C29.0279 4.33442 24.0633 7.47723 19.9422 11.569C15.8211 15.6607 12.6428 20.6028 10.6294 26.05L20.4395 13.6454L34.4894 2.36ZM48.1194 76.39C39.333 76.4018 29.3969 71.9955 22.7494 66.25L73.3994 66.2C66.7453 71.9477 56.8622 76.4039 48.0694 76.39H48.1194ZM73.3994 66.2L22.7494 66.25C19.1236 62.7874 16.246 58.6186 14.2941 54.0007C12.3421 49.3827 11.3573 44.4138 11.4004 39.4004C11.4435 34.3871 12.5136 29.4358 14.5447 24.8521C16.5757 20.2685 19.5246 16.1497 23.2094 12.75L71.5094 11.5C75.183 14.9026 79.6013 20.2711 81.6233 24.852C83.6453 29.4329 84.7083 34.3792 84.7467 39.3864C84.7851 44.3935 83.7982 49.3556 81.8467 53.967C79.8952 58.5783 77.0204 62.7415 73.3994 66.2ZM152.449 3.03C160.994 3.02887 170.708 7.32637 177.269 12.8H127.479C134.053 7.3146 143.837 3.0163 152.399 3.03H152.449ZM152.449 76.39C143.66 76.4042 133.73 71.9978 127.079 66.25H177.729C171.066 72.0091 161.206 76.4163 152.399 76.39H152.449ZM177.729 66.25H127.079C123.458 62.7921 120.582 58.6296 118.63 54.0186C116.678 49.4076 115.69 44.4457 115.727 39.4386C115.765 34.4314 116.827 29.4849 118.848 24.9036C120.869 20.3223 123.806 16.2033 127.479 12.8H177.269C180.948 16.1984 183.891 20.3139 185.918 24.8931C187.945 29.4722 189.013 34.4179 189.056 39.4255C189.099 44.4331 188.117 49.3965 186.169 54.0099C184.221 58.6232 181.349 62.7888 177.729 66.25ZM163.5 4.39991L175 8.31L189.929 26.04C187.91 20.5923 184.727 15.6509 180.6 11.5609C176.474 7.4709 166.76 0.309998 150.559 0L163.5 4.39991Z" fill="#020202"/>
</svg>
